<svg width="60" height="60" viewBox="0 0 60 60" fill="none" xmlns="http://www.w3.org/2000/svg">
<rect width="60" height="60" rx="12" fill="white"/>
<g clip-path="url(#clip0_1_654)">
<path d="M20 37.5H22.5V40H37.5V20H22.5V22.5H20V18.75C20 18.4185 20.1317 18.1005 20.3661 17.8661C20.6005 17.6317 20.9185 17.5 21.25 17.5H38.75C39.0815 17.5 39.3995 17.6317 39.6339 17.8661C39.8683 18.1005 40 18.4185 40 18.75V41.25C40 41.5815 39.8683 41.8995 39.6339 42.1339C39.3995 42.3683 39.0815 42.5 38.75 42.5H21.25C20.9185 42.5 20.6005 42.3683 20.3661 42.1339C20.1317 41.8995 20 41.5815 20 41.25V37.5ZM22.5 28.75H31.25V31.25H22.5V35L16.25 30L22.5 25V28.75Z" fill="#707070"/>
</g>
<defs>
<clipPath id="clip0_1_654">
<rect width="30" height="30" fill="white" transform="translate(15 15)"/>
</clipPath>
</defs>
</svg>
