<svg width="60" height="60" viewBox="0 0 60 60" fill="none" xmlns="http://www.w3.org/2000/svg">
<rect width="60" height="60" rx="12" fill="white"/>
<g clip-path="url(#clip0_1_533)">
<path d="M30 42.5C23.0963 42.5 17.5 36.9037 17.5 30C17.5 24.4025 21.1787 19.665 26.25 18.0725V20.7275C24.1012 21.6001 22.3222 23.1921 21.2176 25.2314C20.1129 27.2707 19.7511 29.6304 20.1941 31.9069C20.637 34.1835 21.8572 36.2354 23.646 37.7117C25.4347 39.1879 27.6808 39.9968 30 40C31.9922 39.9999 33.9391 39.4051 35.5911 38.2915C37.243 37.178 38.5249 35.5967 39.2725 33.75H41.9275C40.335 38.8213 35.5975 42.5 30 42.5ZM42.4375 31.25H28.75V17.5625C29.1613 17.5212 29.5787 17.5 30 17.5C36.9037 17.5 42.5 23.0963 42.5 30C42.5 30.4213 42.4788 30.8387 42.4375 31.25ZM31.25 20.0775V28.75H39.9225C39.6443 26.547 38.6411 24.4992 37.071 22.929C35.5008 21.3589 33.453 20.3557 31.25 20.0775Z" fill="#707070"/>
</g>
<defs>
<clipPath id="clip0_1_533">
<rect width="30" height="30" fill="white" transform="translate(15 15)"/>
</clipPath>
</defs>
</svg>
