<svg width="60" height="60" viewBox="0 0 60 60" fill="none" xmlns="http://www.w3.org/2000/svg">
<rect width="60" height="60" rx="12" fill="white"/>
<g clip-path="url(#clip0_1_538)">
<path d="M17.5 26.2425C17.4993 25.2578 17.6929 24.2826 18.0697 23.3727C18.4465 22.4629 18.999 21.6364 19.6957 20.9404C20.3924 20.2444 21.2195 19.6927 22.1297 19.3168C23.0399 18.941 24.0153 18.7484 25 18.75H35C39.1413 18.75 42.5 22.1188 42.5 26.2425V41.25H25C20.8588 41.25 17.5 37.8813 17.5 33.7575V26.2425ZM40 38.75V26.2425C39.9967 24.9181 39.4686 23.6491 38.5314 22.7133C37.5943 21.7775 36.3244 21.2513 35 21.25H25C24.3436 21.2484 23.6933 21.3763 23.0864 21.6265C22.4795 21.8768 21.928 22.2443 21.4635 22.7082C20.9989 23.172 20.6305 23.7229 20.3794 24.3294C20.1283 24.936 19.9993 25.5861 20 26.2425V33.7575C20.0033 35.0819 20.5314 36.351 21.4686 37.2867C22.4058 38.2225 23.6756 38.7487 25 38.75H40ZM32.5 28.75H35V31.25H32.5V28.75ZM25 28.75H27.5V31.25H25V28.75Z" fill="#707070"/>
</g>
<defs>
<clipPath id="clip0_1_538">
<rect width="30" height="30" fill="white" transform="translate(15 15)"/>
</clipPath>
</defs>
</svg>
