<svg width="60" height="60" viewBox="0 0 60 60" fill="none" xmlns="http://www.w3.org/2000/svg">
<rect width="60" height="60" rx="12" fill="white"/>
<g clip-path="url(#clip0_1_543)">
<path d="M19.4524 37.6664C18.8888 36.6917 18.4507 35.6497 18.1484 34.5651C18.8062 34.2306 19.3586 33.7206 19.7445 33.0916C20.1304 32.4626 20.3348 31.7392 20.3351 31.0012C20.3353 30.2633 20.1315 29.5397 19.746 28.9104C19.3606 28.2812 18.8086 27.7708 18.1511 27.4358C18.7538 25.2564 19.9014 23.2664 21.4858 21.6531C22.1046 22.0554 22.8226 22.2786 23.5604 22.2981C24.2982 22.3176 25.027 22.1326 25.6662 21.7635C26.3054 21.3945 26.83 20.8558 27.1819 20.207C27.5339 19.5583 27.6995 18.8248 27.6604 18.0878C29.8499 17.5219 32.1474 17.5228 34.3364 18.0904C34.2977 18.8275 34.4636 19.5608 34.8159 20.2094C35.1681 20.8579 35.6929 21.3964 36.3322 21.7652C36.9715 22.134 37.7004 22.3187 38.4381 22.2989C39.1759 22.2791 39.8938 22.0556 40.5124 21.6531C41.2844 22.4398 41.9698 23.3344 42.5458 24.3331C43.1231 25.3318 43.5551 26.3731 43.8498 27.4344C43.192 27.769 42.6396 28.2789 42.2537 28.9079C41.8678 29.5369 41.6634 30.2604 41.6631 30.9983C41.6629 31.7362 41.8667 32.4598 42.2522 33.0891C42.6376 33.7184 43.1896 34.2287 43.8471 34.5638C43.2444 36.7431 42.0968 38.7332 40.5124 40.3464C39.8936 39.9441 39.1756 39.7209 38.4378 39.7014C37.7 39.6819 36.9712 39.8669 36.332 40.236C35.6928 40.6051 35.1682 41.1438 34.8163 41.7925C34.4643 42.4413 34.2987 43.1747 34.3378 43.9118C32.1483 44.4776 29.8508 44.4767 27.6618 43.9091C27.7005 43.1721 27.5346 42.4387 27.1823 41.7902C26.8301 41.1416 26.3053 40.6031 25.666 40.2344C25.0267 39.8656 24.2978 39.6808 23.5601 39.7006C22.8223 39.7204 22.1044 39.9439 21.4858 40.3464C20.6978 39.5424 20.0146 38.6419 19.4524 37.6664ZM26.9991 37.9278C28.4199 38.7473 29.4882 40.0625 29.9991 41.6211C30.6644 41.6838 31.3324 41.6851 31.9978 41.6224C32.509 40.0636 33.5778 38.7484 34.9991 37.9291C36.4194 37.1073 38.0931 36.8391 39.6991 37.1758C40.0858 36.6318 40.4191 36.0518 40.6964 35.4451C39.6023 34.223 38.9979 32.64 38.9991 30.9998C38.9991 29.3198 39.6258 27.7504 40.6964 26.5544C40.4171 25.948 40.0824 25.3686 39.6964 24.8238C38.0915 25.1602 36.4188 24.8924 34.9991 24.0718C33.5783 23.2523 32.51 21.9371 31.9991 20.3784C31.3338 20.3158 30.6658 20.3144 30.0004 20.3771C29.4892 21.936 28.4204 23.2512 26.9991 24.0704C25.5788 24.8922 23.9051 25.1605 22.2991 24.8238C21.9132 25.3681 21.5793 25.9476 21.3018 26.5544C22.3959 27.7765 23.0003 29.3595 22.9991 30.9998C22.9991 32.6798 22.3724 34.2491 21.3018 35.4451C21.5811 36.0516 21.9158 36.6309 22.3018 37.1758C23.9067 36.8394 25.5794 37.1071 26.9991 37.9278ZM30.9991 34.9998C29.9382 34.9998 28.9208 34.5783 28.1707 33.8282C27.4205 33.078 26.9991 32.0606 26.9991 30.9998C26.9991 29.9389 27.4205 28.9215 28.1707 28.1713C28.9208 27.4212 29.9382 26.9998 30.9991 26.9998C32.06 26.9998 33.0774 27.4212 33.8275 28.1713C34.5777 28.9215 34.9991 29.9389 34.9991 30.9998C34.9991 32.0606 34.5777 33.078 33.8275 33.8282C33.0774 34.5783 32.06 34.9998 30.9991 34.9998ZM30.9991 32.3331C31.3527 32.3331 31.6919 32.1926 31.9419 31.9426C32.192 31.6925 32.3324 31.3534 32.3324 30.9998C32.3324 30.6461 32.192 30.307 31.9419 30.057C31.6919 29.8069 31.3527 29.6664 30.9991 29.6664C30.6455 29.6664 30.3063 29.8069 30.0563 30.057C29.8062 30.307 29.6658 30.6461 29.6658 30.9998C29.6658 31.3534 29.8062 31.6925 30.0563 31.9426C30.3063 32.1926 30.6455 32.3331 30.9991 32.3331Z" fill="#707070"/>
</g>
<defs>
<clipPath id="clip0_1_543">
<rect width="32" height="32" fill="white" transform="translate(15 15)"/>
</clipPath>
</defs>
</svg>
