<svg width="60" height="60" viewBox="0 0 60 60" fill="none" xmlns="http://www.w3.org/2000/svg">
<rect width="60" height="60" rx="12" fill="white"/>
<g clip-path="url(#clip0_1_528)">
<path d="M36.25 18.75H41.25C41.5815 18.75 41.8995 18.8817 42.1339 19.1161C42.3683 19.3505 42.5 19.6685 42.5 20V40C42.5 40.3315 42.3683 40.6495 42.1339 40.8839C41.8995 41.1183 41.5815 41.25 41.25 41.25H18.75C18.4185 41.25 18.1005 41.1183 17.8661 40.8839C17.6317 40.6495 17.5 40.3315 17.5 40V20C17.5 19.6685 17.6317 19.3505 17.8661 19.1161C18.1005 18.8817 18.4185 18.75 18.75 18.75H23.75V16.25H26.25V18.75H33.75V16.25H36.25V18.75ZM20 26.25V38.75H40V26.25H20ZM22.5 31.25H28.75V36.25H22.5V31.25Z" fill="#707070"/>
</g>
<defs>
<clipPath id="clip0_1_528">
<rect width="30" height="30" fill="white" transform="translate(15 15)"/>
</clipPath>
</defs>
</svg>
